<mxfile host="app.diagrams.net" modified="2021-10-27T12:56:52.214Z" agent="5.0 (Windows NT 10.0; Win64; x64) AppleWebKit/537.36 (KHTML, like Gecko) Chrome/95.0.4638.54 Safari/537.36" etag="MNXHa10Y-gTeWHAWUCD7" version="15.5.9" type="github">
  <diagram id="C5RBs43oDa-KdzZeNtuy" name="Page-1">
    <mxGraphModel dx="1038" dy="539" grid="1" gridSize="10" guides="1" tooltips="1" connect="1" arrows="1" fold="1" page="1" pageScale="1" pageWidth="827" pageHeight="1169" math="0" shadow="0">
      <root>
        <mxCell id="WIyWlLk6GJQsqaUBKTNV-0" />
        <mxCell id="WIyWlLk6GJQsqaUBKTNV-1" parent="WIyWlLk6GJQsqaUBKTNV-0" />
        <mxCell id="klcvxJCRlaChU0ZgOOpA-2" style="rounded=0;orthogonalLoop=1;jettySize=auto;html=1;exitX=1;exitY=0.5;exitDx=0;exitDy=0;entryX=0;entryY=0.5;entryDx=0;entryDy=0;" edge="1" parent="WIyWlLk6GJQsqaUBKTNV-1" source="klcvxJCRlaChU0ZgOOpA-0" target="klcvxJCRlaChU0ZgOOpA-1">
          <mxGeometry relative="1" as="geometry" />
        </mxCell>
        <mxCell id="klcvxJCRlaChU0ZgOOpA-43" value="录入教室信息" style="edgeLabel;html=1;align=center;verticalAlign=middle;resizable=0;points=[];" vertex="1" connectable="0" parent="klcvxJCRlaChU0ZgOOpA-2">
          <mxGeometry x="-0.16" y="-1" relative="1" as="geometry">
            <mxPoint as="offset" />
          </mxGeometry>
        </mxCell>
        <mxCell id="klcvxJCRlaChU0ZgOOpA-0" value="管理员" style="html=1;dashed=0;whitespace=wrap;" vertex="1" parent="WIyWlLk6GJQsqaUBKTNV-1">
          <mxGeometry x="120" y="165" width="80" height="40" as="geometry" />
        </mxCell>
        <mxCell id="klcvxJCRlaChU0ZgOOpA-5" style="edgeStyle=none;rounded=0;orthogonalLoop=1;jettySize=auto;html=1;exitX=1;exitY=0.5;exitDx=0;exitDy=0;entryX=0.25;entryY=1;entryDx=0;entryDy=0;" edge="1" parent="WIyWlLk6GJQsqaUBKTNV-1" source="klcvxJCRlaChU0ZgOOpA-1" target="klcvxJCRlaChU0ZgOOpA-4">
          <mxGeometry relative="1" as="geometry" />
        </mxCell>
        <mxCell id="klcvxJCRlaChU0ZgOOpA-44" value="教室数据" style="edgeLabel;html=1;align=center;verticalAlign=middle;resizable=0;points=[];" vertex="1" connectable="0" parent="klcvxJCRlaChU0ZgOOpA-5">
          <mxGeometry x="-0.1483" y="-4" relative="1" as="geometry">
            <mxPoint as="offset" />
          </mxGeometry>
        </mxCell>
        <mxCell id="klcvxJCRlaChU0ZgOOpA-1" value="登记教室信息" style="shape=ellipse;html=1;dashed=0;whitespace=wrap;aspect=fixed;perimeter=ellipsePerimeter;" vertex="1" parent="WIyWlLk6GJQsqaUBKTNV-1">
          <mxGeometry x="320" y="135" width="100" height="100" as="geometry" />
        </mxCell>
        <mxCell id="klcvxJCRlaChU0ZgOOpA-97" style="edgeStyle=none;rounded=0;orthogonalLoop=1;jettySize=auto;html=1;exitX=0.5;exitY=1;exitDx=0;exitDy=0;entryX=0;entryY=0;entryDx=0;entryDy=0;" edge="1" parent="WIyWlLk6GJQsqaUBKTNV-1" source="klcvxJCRlaChU0ZgOOpA-4" target="klcvxJCRlaChU0ZgOOpA-65">
          <mxGeometry relative="1" as="geometry" />
        </mxCell>
        <mxCell id="klcvxJCRlaChU0ZgOOpA-98" value="教室数据" style="edgeLabel;html=1;align=center;verticalAlign=middle;resizable=0;points=[];" vertex="1" connectable="0" parent="klcvxJCRlaChU0ZgOOpA-97">
          <mxGeometry x="0.3089" y="-3" relative="1" as="geometry">
            <mxPoint as="offset" />
          </mxGeometry>
        </mxCell>
        <mxCell id="klcvxJCRlaChU0ZgOOpA-4" value="教室文件" style="html=1;dashed=0;whitespace=wrap;shape=partialRectangle;right=0;left=0;rotation=0;" vertex="1" parent="WIyWlLk6GJQsqaUBKTNV-1">
          <mxGeometry x="530" y="90" width="100" height="30" as="geometry" />
        </mxCell>
        <mxCell id="klcvxJCRlaChU0ZgOOpA-8" style="edgeStyle=none;rounded=0;orthogonalLoop=1;jettySize=auto;html=1;exitX=1;exitY=0.5;exitDx=0;exitDy=0;" edge="1" parent="WIyWlLk6GJQsqaUBKTNV-1" source="klcvxJCRlaChU0ZgOOpA-6" target="klcvxJCRlaChU0ZgOOpA-7">
          <mxGeometry relative="1" as="geometry" />
        </mxCell>
        <mxCell id="klcvxJCRlaChU0ZgOOpA-42" value="添加/修改课程" style="edgeLabel;html=1;align=center;verticalAlign=middle;resizable=0;points=[];" vertex="1" connectable="0" parent="klcvxJCRlaChU0ZgOOpA-8">
          <mxGeometry x="-0.2067" y="-4" relative="1" as="geometry">
            <mxPoint as="offset" />
          </mxGeometry>
        </mxCell>
        <mxCell id="klcvxJCRlaChU0ZgOOpA-6" value="教师" style="html=1;dashed=0;whitespace=wrap;" vertex="1" parent="WIyWlLk6GJQsqaUBKTNV-1">
          <mxGeometry x="50" y="290" width="80" height="40" as="geometry" />
        </mxCell>
        <mxCell id="klcvxJCRlaChU0ZgOOpA-13" style="edgeStyle=none;rounded=0;orthogonalLoop=1;jettySize=auto;html=1;exitX=1;exitY=0.5;exitDx=0;exitDy=0;" edge="1" parent="WIyWlLk6GJQsqaUBKTNV-1" source="klcvxJCRlaChU0ZgOOpA-7" target="klcvxJCRlaChU0ZgOOpA-12">
          <mxGeometry relative="1" as="geometry" />
        </mxCell>
        <mxCell id="klcvxJCRlaChU0ZgOOpA-40" value="课程数据" style="edgeLabel;html=1;align=center;verticalAlign=middle;resizable=0;points=[];" vertex="1" connectable="0" parent="klcvxJCRlaChU0ZgOOpA-13">
          <mxGeometry x="-0.0973" y="-4" relative="1" as="geometry">
            <mxPoint as="offset" />
          </mxGeometry>
        </mxCell>
        <mxCell id="klcvxJCRlaChU0ZgOOpA-7" value="登记课程信息" style="shape=ellipse;html=1;dashed=0;whitespace=wrap;aspect=fixed;perimeter=ellipsePerimeter;" vertex="1" parent="WIyWlLk6GJQsqaUBKTNV-1">
          <mxGeometry x="260" y="270" width="100" height="100" as="geometry" />
        </mxCell>
        <mxCell id="klcvxJCRlaChU0ZgOOpA-20" style="edgeStyle=none;rounded=0;orthogonalLoop=1;jettySize=auto;html=1;exitX=0;exitY=0.5;exitDx=0;exitDy=0;entryX=1;entryY=0.5;entryDx=0;entryDy=0;" edge="1" parent="WIyWlLk6GJQsqaUBKTNV-1" source="klcvxJCRlaChU0ZgOOpA-12" target="klcvxJCRlaChU0ZgOOpA-17">
          <mxGeometry relative="1" as="geometry" />
        </mxCell>
        <mxCell id="klcvxJCRlaChU0ZgOOpA-21" value="课程数据" style="edgeLabel;html=1;align=center;verticalAlign=middle;resizable=0;points=[];" vertex="1" connectable="0" parent="klcvxJCRlaChU0ZgOOpA-20">
          <mxGeometry x="0.1689" y="-4" relative="1" as="geometry">
            <mxPoint x="16" y="-2" as="offset" />
          </mxGeometry>
        </mxCell>
        <mxCell id="klcvxJCRlaChU0ZgOOpA-26" style="edgeStyle=none;rounded=0;orthogonalLoop=1;jettySize=auto;html=1;exitX=0.25;exitY=1;exitDx=0;exitDy=0;entryX=1;entryY=0;entryDx=0;entryDy=0;" edge="1" parent="WIyWlLk6GJQsqaUBKTNV-1" source="klcvxJCRlaChU0ZgOOpA-12" target="klcvxJCRlaChU0ZgOOpA-24">
          <mxGeometry relative="1" as="geometry" />
        </mxCell>
        <mxCell id="klcvxJCRlaChU0ZgOOpA-37" style="edgeStyle=none;rounded=0;orthogonalLoop=1;jettySize=auto;html=1;exitX=0.75;exitY=1;exitDx=0;exitDy=0;entryX=0;entryY=0;entryDx=0;entryDy=0;" edge="1" parent="WIyWlLk6GJQsqaUBKTNV-1" source="klcvxJCRlaChU0ZgOOpA-12" target="klcvxJCRlaChU0ZgOOpA-32">
          <mxGeometry relative="1" as="geometry" />
        </mxCell>
        <mxCell id="klcvxJCRlaChU0ZgOOpA-39" value="课程数据" style="edgeLabel;html=1;align=center;verticalAlign=middle;resizable=0;points=[];" vertex="1" connectable="0" parent="klcvxJCRlaChU0ZgOOpA-37">
          <mxGeometry x="-0.3753" relative="1" as="geometry">
            <mxPoint as="offset" />
          </mxGeometry>
        </mxCell>
        <mxCell id="klcvxJCRlaChU0ZgOOpA-74" style="edgeStyle=none;rounded=0;orthogonalLoop=1;jettySize=auto;html=1;exitX=0.25;exitY=0;exitDx=0;exitDy=0;entryX=0;entryY=1;entryDx=0;entryDy=0;" edge="1" parent="WIyWlLk6GJQsqaUBKTNV-1" source="klcvxJCRlaChU0ZgOOpA-12" target="klcvxJCRlaChU0ZgOOpA-65">
          <mxGeometry relative="1" as="geometry" />
        </mxCell>
        <mxCell id="klcvxJCRlaChU0ZgOOpA-75" value="课程数据" style="edgeLabel;html=1;align=center;verticalAlign=middle;resizable=0;points=[];" vertex="1" connectable="0" parent="klcvxJCRlaChU0ZgOOpA-74">
          <mxGeometry x="0.6326" y="-2" relative="1" as="geometry">
            <mxPoint as="offset" />
          </mxGeometry>
        </mxCell>
        <mxCell id="klcvxJCRlaChU0ZgOOpA-95" style="edgeStyle=none;rounded=0;orthogonalLoop=1;jettySize=auto;html=1;exitX=1;exitY=1;exitDx=0;exitDy=0;entryX=0;entryY=1;entryDx=0;entryDy=0;" edge="1" parent="WIyWlLk6GJQsqaUBKTNV-1" source="klcvxJCRlaChU0ZgOOpA-12" target="klcvxJCRlaChU0ZgOOpA-51">
          <mxGeometry relative="1" as="geometry" />
        </mxCell>
        <mxCell id="klcvxJCRlaChU0ZgOOpA-96" value="课程数据" style="edgeLabel;html=1;align=center;verticalAlign=middle;resizable=0;points=[];" vertex="1" connectable="0" parent="klcvxJCRlaChU0ZgOOpA-95">
          <mxGeometry x="-0.4245" y="-1" relative="1" as="geometry">
            <mxPoint as="offset" />
          </mxGeometry>
        </mxCell>
        <mxCell id="klcvxJCRlaChU0ZgOOpA-12" value="课程文件" style="html=1;dashed=0;whitespace=wrap;shape=partialRectangle;right=0;left=0;rotation=0;" vertex="1" parent="WIyWlLk6GJQsqaUBKTNV-1">
          <mxGeometry x="560" y="470" width="100" height="30" as="geometry" />
        </mxCell>
        <mxCell id="klcvxJCRlaChU0ZgOOpA-18" style="edgeStyle=none;rounded=0;orthogonalLoop=1;jettySize=auto;html=1;exitX=1;exitY=0.5;exitDx=0;exitDy=0;entryX=0;entryY=0.5;entryDx=0;entryDy=0;" edge="1" parent="WIyWlLk6GJQsqaUBKTNV-1" source="klcvxJCRlaChU0ZgOOpA-16" target="klcvxJCRlaChU0ZgOOpA-17">
          <mxGeometry relative="1" as="geometry" />
        </mxCell>
        <mxCell id="klcvxJCRlaChU0ZgOOpA-41" value="选课请求" style="edgeLabel;html=1;align=center;verticalAlign=middle;resizable=0;points=[];" vertex="1" connectable="0" parent="klcvxJCRlaChU0ZgOOpA-18">
          <mxGeometry x="-0.3754" relative="1" as="geometry">
            <mxPoint as="offset" />
          </mxGeometry>
        </mxCell>
        <mxCell id="klcvxJCRlaChU0ZgOOpA-16" value="同学" style="html=1;dashed=0;whitespace=wrap;" vertex="1" parent="WIyWlLk6GJQsqaUBKTNV-1">
          <mxGeometry x="70" y="430" width="80" height="40" as="geometry" />
        </mxCell>
        <mxCell id="klcvxJCRlaChU0ZgOOpA-17" value="处理选课请求" style="shape=ellipse;html=1;dashed=0;whitespace=wrap;aspect=fixed;perimeter=ellipsePerimeter;" vertex="1" parent="WIyWlLk6GJQsqaUBKTNV-1">
          <mxGeometry x="260" y="420" width="100" height="100" as="geometry" />
        </mxCell>
        <mxCell id="klcvxJCRlaChU0ZgOOpA-25" style="edgeStyle=none;rounded=0;orthogonalLoop=1;jettySize=auto;html=1;exitX=0.5;exitY=0;exitDx=0;exitDy=0;entryX=0;entryY=1;entryDx=0;entryDy=0;" edge="1" parent="WIyWlLk6GJQsqaUBKTNV-1" source="klcvxJCRlaChU0ZgOOpA-22" target="klcvxJCRlaChU0ZgOOpA-24">
          <mxGeometry relative="1" as="geometry" />
        </mxCell>
        <mxCell id="klcvxJCRlaChU0ZgOOpA-45" value="请求选课信息" style="edgeLabel;html=1;align=center;verticalAlign=middle;resizable=0;points=[];" vertex="1" connectable="0" parent="klcvxJCRlaChU0ZgOOpA-25">
          <mxGeometry x="0.093" y="-1" relative="1" as="geometry">
            <mxPoint as="offset" />
          </mxGeometry>
        </mxCell>
        <mxCell id="klcvxJCRlaChU0ZgOOpA-22" value="同学" style="html=1;dashed=0;whitespace=wrap;" vertex="1" parent="WIyWlLk6GJQsqaUBKTNV-1">
          <mxGeometry x="200" y="610" width="80" height="40" as="geometry" />
        </mxCell>
        <mxCell id="klcvxJCRlaChU0ZgOOpA-27" style="edgeStyle=none;rounded=0;orthogonalLoop=1;jettySize=auto;html=1;exitX=0.5;exitY=1;exitDx=0;exitDy=0;entryX=0.75;entryY=0;entryDx=0;entryDy=0;" edge="1" parent="WIyWlLk6GJQsqaUBKTNV-1" source="klcvxJCRlaChU0ZgOOpA-24" target="klcvxJCRlaChU0ZgOOpA-34">
          <mxGeometry relative="1" as="geometry">
            <Array as="points" />
          </mxGeometry>
        </mxCell>
        <mxCell id="klcvxJCRlaChU0ZgOOpA-46" value="选课信息" style="edgeLabel;html=1;align=center;verticalAlign=middle;resizable=0;points=[];" vertex="1" connectable="0" parent="klcvxJCRlaChU0ZgOOpA-27">
          <mxGeometry x="-0.3829" y="-3" relative="1" as="geometry">
            <mxPoint as="offset" />
          </mxGeometry>
        </mxCell>
        <mxCell id="klcvxJCRlaChU0ZgOOpA-24" value="处理课程数据" style="shape=ellipse;html=1;dashed=0;whitespace=wrap;aspect=fixed;perimeter=ellipsePerimeter;" vertex="1" parent="WIyWlLk6GJQsqaUBKTNV-1">
          <mxGeometry x="420" y="520" width="100" height="100" as="geometry" />
        </mxCell>
        <mxCell id="klcvxJCRlaChU0ZgOOpA-30" value="课程数据" style="edgeLabel;html=1;align=center;verticalAlign=middle;resizable=0;points=[];" vertex="1" connectable="0" parent="WIyWlLk6GJQsqaUBKTNV-1">
          <mxGeometry x="539.9968405360172" y="510.00077881617494" as="geometry" />
        </mxCell>
        <mxCell id="klcvxJCRlaChU0ZgOOpA-33" style="edgeStyle=none;rounded=0;orthogonalLoop=1;jettySize=auto;html=1;exitX=0.25;exitY=0;exitDx=0;exitDy=0;" edge="1" parent="WIyWlLk6GJQsqaUBKTNV-1" source="klcvxJCRlaChU0ZgOOpA-31" target="klcvxJCRlaChU0ZgOOpA-32">
          <mxGeometry relative="1" as="geometry" />
        </mxCell>
        <mxCell id="klcvxJCRlaChU0ZgOOpA-36" value="请求选课名单" style="edgeLabel;html=1;align=center;verticalAlign=middle;resizable=0;points=[];" vertex="1" connectable="0" parent="klcvxJCRlaChU0ZgOOpA-33">
          <mxGeometry x="-0.36" y="-1" relative="1" as="geometry">
            <mxPoint as="offset" />
          </mxGeometry>
        </mxCell>
        <mxCell id="klcvxJCRlaChU0ZgOOpA-31" value="教师" style="html=1;dashed=0;whitespace=wrap;" vertex="1" parent="WIyWlLk6GJQsqaUBKTNV-1">
          <mxGeometry x="580" y="710" width="80" height="40" as="geometry" />
        </mxCell>
        <mxCell id="klcvxJCRlaChU0ZgOOpA-48" style="edgeStyle=none;rounded=0;orthogonalLoop=1;jettySize=auto;html=1;exitX=1;exitY=1;exitDx=0;exitDy=0;entryX=0.5;entryY=0;entryDx=0;entryDy=0;" edge="1" parent="WIyWlLk6GJQsqaUBKTNV-1" source="klcvxJCRlaChU0ZgOOpA-32" target="klcvxJCRlaChU0ZgOOpA-47">
          <mxGeometry relative="1" as="geometry" />
        </mxCell>
        <mxCell id="klcvxJCRlaChU0ZgOOpA-49" value="选课名单" style="edgeLabel;html=1;align=center;verticalAlign=middle;resizable=0;points=[];" vertex="1" connectable="0" parent="klcvxJCRlaChU0ZgOOpA-48">
          <mxGeometry x="-0.3225" y="-1" relative="1" as="geometry">
            <mxPoint as="offset" />
          </mxGeometry>
        </mxCell>
        <mxCell id="klcvxJCRlaChU0ZgOOpA-32" value="处理选课名单" style="shape=ellipse;html=1;dashed=0;whitespace=wrap;aspect=fixed;perimeter=ellipsePerimeter;" vertex="1" parent="WIyWlLk6GJQsqaUBKTNV-1">
          <mxGeometry x="630" y="540" width="100" height="100" as="geometry" />
        </mxCell>
        <mxCell id="klcvxJCRlaChU0ZgOOpA-34" value="同学" style="html=1;dashed=0;whitespace=wrap;" vertex="1" parent="WIyWlLk6GJQsqaUBKTNV-1">
          <mxGeometry x="410" y="690" width="80" height="40" as="geometry" />
        </mxCell>
        <mxCell id="klcvxJCRlaChU0ZgOOpA-47" value="教师" style="html=1;dashed=0;whitespace=wrap;" vertex="1" parent="WIyWlLk6GJQsqaUBKTNV-1">
          <mxGeometry x="720" y="710" width="80" height="40" as="geometry" />
        </mxCell>
        <mxCell id="klcvxJCRlaChU0ZgOOpA-52" style="edgeStyle=none;rounded=0;orthogonalLoop=1;jettySize=auto;html=1;exitX=0.25;exitY=1;exitDx=0;exitDy=0;entryX=0.5;entryY=0;entryDx=0;entryDy=0;" edge="1" parent="WIyWlLk6GJQsqaUBKTNV-1" source="klcvxJCRlaChU0ZgOOpA-50" target="klcvxJCRlaChU0ZgOOpA-51">
          <mxGeometry relative="1" as="geometry" />
        </mxCell>
        <mxCell id="klcvxJCRlaChU0ZgOOpA-53" value="删除课程" style="edgeLabel;html=1;align=center;verticalAlign=middle;resizable=0;points=[];" vertex="1" connectable="0" parent="klcvxJCRlaChU0ZgOOpA-52">
          <mxGeometry x="0.3465" y="3" relative="1" as="geometry">
            <mxPoint as="offset" />
          </mxGeometry>
        </mxCell>
        <mxCell id="klcvxJCRlaChU0ZgOOpA-66" style="edgeStyle=none;rounded=0;orthogonalLoop=1;jettySize=auto;html=1;exitX=0;exitY=0.5;exitDx=0;exitDy=0;" edge="1" parent="WIyWlLk6GJQsqaUBKTNV-1" source="klcvxJCRlaChU0ZgOOpA-50" target="klcvxJCRlaChU0ZgOOpA-65">
          <mxGeometry relative="1" as="geometry" />
        </mxCell>
        <mxCell id="klcvxJCRlaChU0ZgOOpA-67" value="分配课程对应教室" style="edgeLabel;html=1;align=center;verticalAlign=middle;resizable=0;points=[];" vertex="1" connectable="0" parent="klcvxJCRlaChU0ZgOOpA-66">
          <mxGeometry x="0.2149" y="1" relative="1" as="geometry">
            <mxPoint as="offset" />
          </mxGeometry>
        </mxCell>
        <mxCell id="klcvxJCRlaChU0ZgOOpA-50" value="教务处" style="html=1;dashed=0;whitespace=wrap;" vertex="1" parent="WIyWlLk6GJQsqaUBKTNV-1">
          <mxGeometry x="827" y="240" width="80" height="40" as="geometry" />
        </mxCell>
        <mxCell id="klcvxJCRlaChU0ZgOOpA-60" style="edgeStyle=none;rounded=0;orthogonalLoop=1;jettySize=auto;html=1;exitX=0;exitY=0.5;exitDx=0;exitDy=0;entryX=0.75;entryY=0;entryDx=0;entryDy=0;" edge="1" parent="WIyWlLk6GJQsqaUBKTNV-1" source="klcvxJCRlaChU0ZgOOpA-51" target="klcvxJCRlaChU0ZgOOpA-12">
          <mxGeometry relative="1" as="geometry" />
        </mxCell>
        <mxCell id="klcvxJCRlaChU0ZgOOpA-61" value="删除课程编号" style="edgeLabel;html=1;align=center;verticalAlign=middle;resizable=0;points=[];" vertex="1" connectable="0" parent="klcvxJCRlaChU0ZgOOpA-60">
          <mxGeometry x="-0.2613" y="1" relative="1" as="geometry">
            <mxPoint y="-1" as="offset" />
          </mxGeometry>
        </mxCell>
        <mxCell id="klcvxJCRlaChU0ZgOOpA-51" value="删除不满足条件课程" style="shape=ellipse;html=1;dashed=0;whitespace=wrap;aspect=fixed;perimeter=ellipsePerimeter;" vertex="1" parent="WIyWlLk6GJQsqaUBKTNV-1">
          <mxGeometry x="800" y="420" width="100" height="100" as="geometry" />
        </mxCell>
        <mxCell id="klcvxJCRlaChU0ZgOOpA-62" style="edgeStyle=none;rounded=0;orthogonalLoop=1;jettySize=auto;html=1;exitX=0.5;exitY=1;exitDx=0;exitDy=0;" edge="1" parent="WIyWlLk6GJQsqaUBKTNV-1" source="klcvxJCRlaChU0ZgOOpA-50" target="klcvxJCRlaChU0ZgOOpA-50">
          <mxGeometry relative="1" as="geometry" />
        </mxCell>
        <mxCell id="klcvxJCRlaChU0ZgOOpA-68" style="edgeStyle=none;rounded=0;orthogonalLoop=1;jettySize=auto;html=1;entryX=1;entryY=1;entryDx=0;entryDy=0;exitX=0.6;exitY=0.026;exitDx=0;exitDy=0;exitPerimeter=0;" edge="1" parent="WIyWlLk6GJQsqaUBKTNV-1" source="klcvxJCRlaChU0ZgOOpA-65" target="klcvxJCRlaChU0ZgOOpA-4">
          <mxGeometry relative="1" as="geometry">
            <mxPoint x="750" y="120" as="sourcePoint" />
            <Array as="points">
              <mxPoint x="630" y="120" />
            </Array>
          </mxGeometry>
        </mxCell>
        <mxCell id="klcvxJCRlaChU0ZgOOpA-71" value="教室使用数据" style="edgeLabel;html=1;align=center;verticalAlign=middle;resizable=0;points=[];" vertex="1" connectable="0" parent="klcvxJCRlaChU0ZgOOpA-68">
          <mxGeometry x="0.3573" y="3" relative="1" as="geometry">
            <mxPoint x="1" as="offset" />
          </mxGeometry>
        </mxCell>
        <mxCell id="klcvxJCRlaChU0ZgOOpA-69" style="edgeStyle=none;rounded=0;orthogonalLoop=1;jettySize=auto;html=1;exitX=0.5;exitY=1;exitDx=0;exitDy=0;entryX=0.5;entryY=0;entryDx=0;entryDy=0;" edge="1" parent="WIyWlLk6GJQsqaUBKTNV-1" source="klcvxJCRlaChU0ZgOOpA-65" target="klcvxJCRlaChU0ZgOOpA-12">
          <mxGeometry relative="1" as="geometry" />
        </mxCell>
        <mxCell id="klcvxJCRlaChU0ZgOOpA-70" value="课程的教室数据" style="edgeLabel;html=1;align=center;verticalAlign=middle;resizable=0;points=[];" vertex="1" connectable="0" parent="klcvxJCRlaChU0ZgOOpA-69">
          <mxGeometry x="-0.2672" y="5" relative="1" as="geometry">
            <mxPoint as="offset" />
          </mxGeometry>
        </mxCell>
        <mxCell id="klcvxJCRlaChU0ZgOOpA-65" value="登记教室信息" style="shape=ellipse;html=1;dashed=0;whitespace=wrap;aspect=fixed;perimeter=ellipsePerimeter;" vertex="1" parent="WIyWlLk6GJQsqaUBKTNV-1">
          <mxGeometry x="570" y="210" width="100" height="100" as="geometry" />
        </mxCell>
      </root>
    </mxGraphModel>
  </diagram>
</mxfile>
